# xmcd
#
# Track frame offsets: 
#        150
#        11400
#        23962
#        41159
#        61683
#        74150
#        83629
#        95558
#        102727
#        124298
#        140023
#        153340
#        164312
#        182375
#        196223
#
# Disc length: 2783 seconds
#
# Revision: 0
# Processed by: cddbd v1.5.2PL0 Copyright (c) Steve Scherf et al.
# Submitted via: ExactAudioCopy v1.0b1
#
DISCID=cd0add0f
DTITLE=Druhá Tráva - Robert Krestan - good morning, friend
DYEAR=2004
DGENRE=bluegrass
TTITLE0=good morning, friend
TTITLE1=ring them bell
TTITLE2=what it is
TTITLE3=hold on
TTITLE4=fall farm
TTITLE5=sitting on the top of the world
TTITLE6=the holy wells of old ireland
TTITLE7=ossian
TTITLE8=goin' to acapulco
TTITLE9=the speedway at nazareth
TTITLE10=caurea
TTITLE11=bad moon rising
TTITLE12=when death does us apart
TTITLE13=lily of the west
TTITLE14=nobody loves anybody anymore
EXTD=
EXTT0=
EXTT1=
EXTT2=
EXTT3=
EXTT4=
EXTT5=
EXTT6=
EXTT7=
EXTT8=
EXTT9=
EXTT10=
EXTT11=
EXTT12=
EXTT13=
EXTT14=
PLAYORDER=
